<svg width="13.785156" height="16.000000" viewBox="0 0 13.7852 16" fill="none" xmlns="http://www.w3.org/2000/svg" xmlns:xlink="http://www.w3.org/1999/xlink">
	<desc>
			Created with Pixso.
	</desc>
	<defs/>
	<path id="Vector" d="M11.08 9.88L10.54 9.56L12 9.17L11.76 8.26L9.39 8.9L8.27 8.25C8.28 8.17 8.29 8.08 8.29 8C8.29 7.91 8.28 7.82 8.27 7.74L9.39 7.09L11.76 7.73L12 6.82L10.54 6.43L11.08 6.11L13.43 5.97L13.78 4.02L11.91 3.34L10.62 5.3L10.07 5.62L10.46 4.15L9.56 3.91L8.92 6.28L7.8 6.93C7.67 6.82 7.52 6.73 7.36 6.67L7.36 5.38L9.09 3.64L8.43 2.98L7.36 4.05L7.36 3.42L8.41 1.32L6.89 0L5.37 1.32L6.42 3.42L6.42 4.05L5.34 2.98L4.68 3.64L6.42 5.38L6.42 6.67C6.25 6.73 6.1 6.82 5.97 6.93L4.86 6.28L4.22 3.91L3.31 4.15L3.71 5.62L3.16 5.3L1.86 3.34L0 4.02L0.34 5.97L2.69 6.11L3.24 6.43L1.77 6.82L2.01 7.73L4.39 7.09L5.51 7.74C5.49 7.82 5.48 7.91 5.48 8C5.48 8.08 5.49 8.17 5.51 8.25L4.39 8.9L2.01 8.26L1.77 9.17L3.24 9.56L2.69 9.88L0.34 10.02L0 11.97L1.86 12.65L3.16 10.69L3.71 10.37L3.31 11.84L4.22 12.08L4.86 9.71L5.97 9.06C6.1 9.17 6.25 9.26 6.42 9.32L6.42 10.61L4.68 12.35L5.34 13.01L6.42 11.94L6.42 12.57L5.37 14.67L6.89 16L8.41 14.67L7.36 12.57L7.36 11.94L8.43 13.01L9.09 12.35L7.36 10.61L7.36 9.32C7.52 9.26 7.67 9.17 7.8 9.06L8.92 9.71L9.56 12.08L10.46 11.84L10.07 10.37L10.62 10.69L11.91 12.65L13.78 11.97L13.43 10.02L11.08 9.88Z" fill="#FF4646" fill-opacity="1.000000" fill-rule="nonzero"/>
</svg>
